<svg xmlns="http://www.w3.org/2000/svg" width="970.667" height="970.667" preserveAspectRatio="xMidYMid meet" version="1.0" viewBox="0 0 728 728"><metadata>Created by potrace 1.14, written by Peter Selinger 2001-2017</metadata><g fill="#000" stroke="none"><path d="M3635 6524 c-38 -14 -78 -27 -87 -30 -10 -4 -18 -10 -18 -15 0 -5 -8 -9 -19 -9 -10 0 -31 -10 -47 -22 -15 -12 -34 -23 -42 -24 -7 -2 -21 -9 -30 -17 -10 -7 -71 -47 -137 -88 -66 -40 -122 -76 -125 -79 -6 -7 -193 -121 -220 -135 -11 -5 -20 -13 -20 -17 0 -5 -7 -8 -15 -8 -8 0 -15 -4 -15 -10 0 -5 -4 -10 -10 -10 -5 0 -42 -21 -82 -47 -112 -72 -295 -159 -382 -183 -62 -17 -97 -21 -161 -17 -126 7 -140 21 -110 107 11 32 12 46 4 56 -13 16 -49 19 -49 3 0 -5 -4 -8 -9 -5 -13 9 -94 -36 -154 -85 -92 -74 -162 -188 -174 -279 -16 -128 -5 -209 42 -305 44 -91 111 -160 194 -198 56 -27 78 -31 160 -33 53 -2 119 2 146 7 28 5 59 11 70 13 29 6 148 47 160 55 6 4 26 14 45 21 29 12 94 50 224 133 21 13 34 23 139 112 38 31 70 55 72 53 1 -1 -26 -46 -60 -98 -142 -215 -605 -916 -615 -930 -5 -8 -90 -134 -188 -280 -227 -336 -260 -382 -272 -375 -17 10 -133 20 -240 20 -95 -1 -110 -3 -157 -28 -55 -28 -151 -115 -196 -177 -62 -85 -91 -226 -59 -282 29 -51 123 -80 260 -81 28 -1 52 -3 52 -6 0 -8 -54 -86 -62 -89 -5 -2 -8 -10 -8 -18 0 -8 -4 -14 -10 -14 -5 0 -10 -4 -10 -10 0 -5 -23 -41 -50 -80 -28 -39 -50 -72 -50 -75 0 -4 -61 -96 -70 -105 -3 -3 -79 -117 -170 -255 -91 -137 -168 -252 -171 -255 -4 -3 -15 -19 -25 -36 -11 -17 -31 -49 -46 -72 -16 -23 -28 -46 -28 -52 0 -5 -4 -10 -10 -10 -5 0 -10 -7 -10 -15 0 -8 -4 -15 -10 -15 -5 0 -17 -14 -26 -32 -9 -18 -23 -38 -30 -46 -8 -7 -14 -19 -14 -27 0 -7 -4 -15 -9 -17 -11 -4 -231 -335 -231 -347 0 -5 -4 -11 -8 -13 -5 -2 -26 -30 -47 -63 -22 -33 -43 -61 -47 -63 -5 -2 -8 -8 -8 -13 0 -4 -32 -56 -71 -114 -42 -63 -67 -110 -63 -117 4 -7 4 -10 -1 -6 -8 8 -45 -33 -45 -51 0 -6 -4 -11 -8 -11 -4 0 -21 -25 -37 -55 -17 -30 -33 -55 -36 -55 -7 0 -22 -40 -20 -52 1 -5 -3 -8 -7 -8 -12 0 -44 -95 -45 -136 -1 -19 5 -39 12 -43 7 -5 12 -11 12 -15 -3 -19 1 -25 19 -31 11 -3 20 -13 20 -21 0 -13 12 -19 33 -15 5 1 6 -3 3 -8 -9 -14 72 -50 102 -45 15 3 29 9 30 15 2 5 10 9 18 9 9 0 13 4 10 9 -3 4 2 8 12 8 36 0 43 3 36 16 -4 6 -4 9 1 5 4 -4 21 0 37 8 16 8 33 12 38 9 6 -3 10 -1 10 6 0 7 5 8 13 3 28 -20 272 -5 333 21 40 17 95 69 120 115 10 19 21 37 24 40 7 7 29 43 37 60 3 8 24 41 45 73 21 31 35 57 31 57 -4 0 -3 4 3 8 15 9 129 186 149 229 9 18 20 33 25 33 6 0 10 4 10 9 0 11 79 140 97 159 7 8 11 17 8 22 -3 5 -1 10 4 12 5 1 34 44 65 93 31 50 59 95 64 100 4 6 19 28 32 50 13 22 28 42 32 43 4 2 8 10 8 17 0 8 6 20 13 27 6 8 17 23 24 33 6 11 51 82 100 158 48 76 95 151 104 165 9 15 85 135 169 267 84 132 164 259 179 283 14 23 31 42 38 42 28 0 218 -107 401 -226 170 -111 494 -341 500 -356 2 -4 8 -8 13 -8 5 0 31 -17 57 -37 27 -21 61 -47 76 -58 15 -11 63 -47 106 -80 43 -33 117 -89 164 -125 48 -36 96 -73 109 -83 12 -10 56 -44 97 -75 41 -32 77 -59 80 -62 4 -5 39 -32 105 -82 6 -5 53 -41 105 -80 52 -40 97 -76 98 -80 2 -4 8 -8 13 -8 5 0 17 -6 26 -14 90 -74 164 -130 176 -135 6 -2 21 -15 34 -27 13 -13 27 -24 32 -24 4 0 16 -8 27 -18 11 -9 62 -46 114 -82 52 -35 97 -68 98 -72 2 -4 9 -8 16 -8 6 0 27 -13 46 -30 19 -16 41 -29 48 -30 6 0 12 -4 12 -10 0 -5 6 -10 13 -10 6 0 30 -14 51 -30 22 -17 46 -30 53 -30 7 0 13 -4 13 -8 0 -5 15 -16 33 -25 17 -10 55 -31 82 -49 76 -47 224 -124 280 -146 66 -25 90 -34 90 -32 0 1 14 -4 30 -10 17 -6 44 -14 60 -17 38 -7 214 -8 240 0 11 3 32 8 48 12 15 4 27 14 28 24 0 10 2 11 6 4 2 -7 8 -13 12 -13 6 0 42 29 86 68 16 15 45 52 45 58 0 3 7 12 15 21 8 8 12 19 9 25 -4 6 -2 8 3 5 12 -7 45 52 37 65 -3 5 0 7 8 6 8 -2 13 6 12 19 0 12 2 20 6 18 11 -7 42 54 34 68 -4 6 -3 9 1 4 5 -4 18 10 30 30 14 25 18 40 11 45 -7 5 -7 8 1 8 16 0 46 58 37 72 -4 6 -3 8 3 5 16 -10 34 38 20 52 -9 9 -8 11 6 6 16 -7 20 2 16 31 0 4 5 10 12 14 19 13 24 103 6 119 -33 27 -77 21 -55 -7 12 -15 11 -16 -6 -2 -16 13 -20 12 -30 -3 -7 -9 -38 -30 -70 -46 -31 -17 -56 -33 -55 -36 0 -4 -3 -10 -7 -13 -4 -4 -4 -1 0 6 6 9 -8 11 -63 8 -38 -2 -72 -1 -76 2 -3 3 -11 7 -18 8 -41 9 -58 14 -75 23 -11 6 -22 7 -26 4 -3 -3 -6 -1 -6 5 0 7 -5 12 -12 12 -6 0 -52 20 -100 45 -49 25 -94 42 -100 39 -6 -4 -8 -2 -4 4 3 6 -7 16 -24 24 -16 7 -30 16 -30 20 0 5 -6 8 -14 8 -8 0 -21 7 -30 15 -8 9 -18 16 -20 16 -21 2 -46 13 -46 19 0 8 -100 70 -110 67 -3 0 -18 11 -34 26 -16 15 -32 25 -35 22 -4 -2 -14 5 -21 16 -8 10 -18 19 -22 19 -11 0 -87 49 -115 74 -13 11 -23 16 -23 13 0 -4 -8 1 -18 11 -10 9 -72 53 -136 97 -65 44 -124 86 -131 93 -8 6 -18 12 -24 12 -6 0 -11 5 -11 10 0 6 -6 10 -14 10 -8 0 -16 4 -18 8 -1 5 -37 33 -78 62 -41 30 -88 64 -105 77 -41 32 -42 33 -105 78 -30 22 -57 42 -60 45 -5 5 -86 67 -175 135 -27 20 -63 48 -80 60 -56 44 -269 200 -395 290 -69 50 -127 92 -130 95 -3 3 -13 10 -22 15 -10 6 -90 59 -179 119 -90 60 -229 151 -311 201 l-148 92 83 38 c45 21 151 71 236 112 85 40 156 73 158 73 7 0 744 367 843 419 52 28 100 51 107 51 7 0 13 4 13 9 0 5 12 14 28 20 26 10 151 76 297 156 173 96 212 117 238 128 15 6 27 15 27 19 0 4 4 8 9 8 9 0 97 48 158 86 13 8 25 13 27 12 2 -2 12 4 22 12 11 9 44 29 74 45 30 16 90 51 133 77 43 26 83 48 88 48 5 0 9 5 9 10 0 6 3 9 8 8 12 -4 172 94 172 105 0 6 3 8 6 4 4 -3 23 5 43 18 19 14 42 25 49 25 8 0 12 6 9 14 -4 10 -1 13 10 9 8 -3 18 -2 22 4 3 5 36 26 73 48 37 21 65 42 62 47 -3 4 1 5 8 3 8 -3 23 4 35 15 12 11 26 20 31 20 4 0 17 8 28 18 10 10 34 25 52 32 17 8 32 18 32 22 0 5 4 8 10 8 12 0 314 201 318 212 2 5 8 8 14 8 17 0 58 37 50 45 -4 5 -1 5 6 1 6 -4 19 -1 27 6 30 27 43 36 71 51 16 9 43 27 59 41 17 14 35 30 41 34 5 5 20 14 31 21 12 6 27 17 35 24 7 7 29 24 48 37 19 13 37 27 40 30 3 3 30 23 60 45 30 22 59 45 63 52 5 8 12 11 18 8 8 -6 13 8 10 28 -1 5 3 5 9 2 13 -8 52 24 44 36 -3 5 2 6 10 3 9 -3 16 -1 16 4 0 6 9 14 21 17 12 4 18 13 15 20 -3 9 0 12 10 8 7 -3 14 0 14 6 0 6 5 11 10 11 14 0 56 43 52 53 -1 5 1 6 6 3 11 -6 103 69 95 78 -4 3 -1 6 6 6 7 0 10 4 7 9 -3 5 0 8 7 7 6 0 14 4 16 9 2 6 12 16 23 23 10 7 16 18 13 23 -4 5 -3 14 1 21 10 16 11 58 2 58 -4 0 -7 3 -6 8 4 14 -21 72 -31 72 -6 0 -11 7 -11 15 0 14 -12 19 -32 16 -5 0 -7 4 -5 9 1 6 -11 18 -28 28 -16 9 -33 21 -36 26 -4 4 -9 2 -12 -5 -4 -9 -6 -7 -6 5 -1 11 -4 17 -7 14 -3 -3 -33 5 -66 19 -33 13 -63 22 -66 19 -3 -3 -11 -1 -17 4 -12 10 -27 13 -120 26 -22 4 -57 12 -77 19 -28 9 -38 10 -38 1 0 -6 -5 -4 -10 4 -5 8 -10 11 -10 5 0 -5 -4 -5 -8 1 -19 31 -124 2 -106 -29 4 -7 4 -9 -1 -5 -4 4 -19 -5 -34 -20 -14 -15 -42 -39 -63 -54 -20 -15 -43 -34 -51 -42 -8 -8 -17 -12 -21 -9 -3 4 -6 2 -6 -4 0 -6 -16 -20 -35 -32 -25 -15 -33 -25 -29 -38 4 -13 3 -14 -3 -5 -10 13 -47 6 -38 -8 2 -4 -8 -13 -23 -21 -15 -8 -30 -18 -34 -24 -4 -5 -8 -6 -8 -2 0 4 -6 2 -14 -5 -8 -7 -11 -17 -8 -22 3 -5 -1 -6 -8 -1 -7 4 -16 2 -21 -6 -4 -8 -14 -14 -21 -14 -7 -1 -12 -7 -10 -14 1 -7 -2 -9 -9 -5 -6 3 -14 3 -18 -2 -11 -16 -99 -74 -111 -74 -7 0 -10 -7 -6 -16 3 -8 2 -13 -3 -9 -10 6 -75 -29 -105 -57 -11 -10 -28 -20 -38 -24 -10 -3 -18 -10 -18 -16 0 -6 -3 -9 -6 -5 -3 3 -15 -3 -27 -14 -11 -10 -27 -19 -34 -19 -7 0 -13 -4 -13 -10 0 -5 -7 -10 -15 -10 -8 0 -15 -4 -15 -10 0 -5 -5 -10 -11 -10 -5 0 -81 -46 -167 -103 -86 -57 -183 -119 -214 -138 -32 -18 -58 -37 -58 -41 0 -5 -6 -8 -13 -8 -7 0 -23 -9 -35 -20 -12 -12 -22 -18 -22 -16 0 5 -63 -34 -86 -53 -6 -5 -20 -12 -32 -15 -12 -4 -22 -12 -22 -17 0 -5 -4 -9 -9 -9 -7 0 -245 -144 -408 -246 -13 -8 -25 -13 -29 -12 -3 2 -10 -5 -15 -14 -6 -10 -14 -18 -19 -18 -5 0 -110 -61 -235 -135 -124 -74 -230 -135 -236 -135 -5 0 -9 -4 -9 -10 0 -5 -4 -10 -9 -10 -7 0 -83 -42 -204 -114 -18 -10 -61 -34 -97 -54 -36 -19 -77 -43 -92 -54 -14 -10 -29 -18 -32 -18 -3 0 -27 -13 -53 -28 -47 -28 -129 -73 -248 -137 -33 -18 -87 -47 -120 -65 -105 -58 -229 -120 -232 -116 -2 1 16 32 39 67 24 35 115 178 203 317 88 138 195 307 238 374 42 68 84 131 92 141 8 9 15 19 15 22 0 6 135 216 149 232 6 7 11 15 11 18 0 5 64 105 83 130 22 29 56 85 51 85 -3 0 1 6 9 14 19 19 169 253 168 261 -1 3 8 15 21 25 13 11 19 19 15 20 -4 0 4 12 18 27 14 15 25 32 25 37 0 5 11 24 25 42 14 18 25 37 25 42 0 6 5 12 11 14 5 2 11 10 12 18 2 8 7 22 12 30 5 8 10 26 12 40 7 55 -7 87 -63 143 -31 32 -53 57 -49 57 4 0 1 7 -6 17 -17 19 -90 54 -101 47 -4 -3 -8 -1 -8 4 0 11 -60 38 -73 34 -5 -1 -6 2 -3 7 10 15 -25 23 -124 26 -81 3 -105 0 -165 -21z m2952 -99 c0 -8 -4 -12 -9 -9 -5 3 -6 10 -3 15 9 13 12 11 12 -6z m117 -3 c2 -4 -5 -9 -17 -9 -17 -2 -19 0 -7 7 18 12 18 12 24 2z m-54 -16 c0 -2 -7 -7 -16 -10 -8 -3 -12 -2 -9 4 6 10 25 14 25 6z m-64 -31 c-1 -8 -5 -17 -8 -21 -5 -4 -4 16 1 34 3 9 9 -1 7 -13z m404 5 c0 -5 -5 -10 -11 -10 -5 0 -7 5 -4 10 3 6 8 10 11 10 2 0 4 -4 4 -10z m-540 -40 c0 -5 -2 -10 -4 -10 -3 0 -8 5 -11 10 -3 6 -1 10 4 10 6 0 11 -4 11 -10z m80 6 c0 -3 -4 -8 -10 -11 -5 -3 -10 -1 -10 4 0 6 5 11 10 11 6 0 10 -2 10 -4z m135 -5 c3 -5 2 -12 -3 -15 -5 -3 -9 1 -9 9 0 17 3 19 12 6z m45 3 c0 -8 -19 -13 -24 -6 -3 5 1 9 9 9 8 0 15 -2 15 -3z m75 -4 c3 -5 1 -10 -4 -10 -6 0 -11 5 -11 10 0 6 2 10 4 10 3 0 8 -4 11 -10z m45 6 c0 -3 -4 -8 -10 -11 -5 -3 -10 -1 -10 4 0 6 5 11 10 11 6 0 10 -2 10 -4z m160 -6 c0 -5 -2 -10 -4 -10 -3 0 -8 5 -11 10 -3 6 -1 10 4 10 6 0 11 -4 11 -10z m-229 -27 c13 -16 12 -17 -3 -4 -10 7 -18 15 -18 17 0 8 8 3 21 -13z m-276 -12 c-9 -8 -36 -10 -30 -2 2 4 11 8 20 8 8 0 13 -3 10 -6z m120 0 c-9 -8 -36 -10 -30 -2 2 4 11 8 20 8 8 0 13 -3 10 -6z m-170 -21 c-3 -5 -12 -10 -18 -10 -7 0 -6 4 3 10 19 12 23 12 15 0z m271 -16 c1 -9 0 -13 -4 -10 -3 4 -7 14 -8 22 -1 9 0 13 4 10 3 -4 7 -14 8 -22z m-162 -2 c3 -5 -1 -9 -9 -9 -8 0 -12 4 -9 9 3 4 7 8 9 8 2 0 6 -4 9 -8z m246 4 c0 -3 -4 -8 -10 -11 -5 -3 -10 -1 -10 4 0 6 5 11 10 11 6 0 10 -2 10 -4z m120 -6 c0 -5 -2 -10 -4 -10 -3 0 -8 5 -11 10 -3 6 -1 10 4 10 6 0 11 -4 11 -10z m35 0 c3 -5 1 -10 -4 -10 -6 0 -11 5 -11 10 0 6 2 10 4 10 3 0 8 -4 11 -10z m-326 -24 c9 -11 9 -16 -1 -22 -7 -4 -10 -4 -6 1 4 4 3 14 -3 22 -6 7 -9 13 -6 13 2 0 10 -6 16 -14z m462 -3 c13 -16 12 -17 -3 -4 -10 7 -18 15 -18 17 0 8 8 3 21 -13z m-415 -29 c1 -9 0 -13 -4 -10 -3 4 -7 14 -8 22 -1 9 0 13 4 10 3 -4 7 -14 8 -22z m84 16 c0 -5 -5 -10 -11 -10 -5 0 -7 5 -4 10 3 6 8 10 11 10 2 0 4 -4 4 -10z m120 6 c0 -3 -4 -8 -10 -11 -5 -3 -10 -1 -10 4 0 6 5 11 10 11 6 0 10 -2 10 -4z m80 0 c0 -3 -4 -8 -10 -11 -5 -3 -10 -1 -10 4 0 6 5 11 10 11 6 0 10 -2 10 -4z m-595 -26 c-3 -5 -12 -10 -18 -10 -7 0 -6 4 3 10 19 12 23 12 15 0z m190 -19 c-9 -8 -36 -10 -30 -2 2 4 11 8 20 8 8 0 13 -3 10 -6z m61 -3 c3 -4 -1 -5 -10 -4 -8 1 -18 5 -22 8 -3 4 1 5 10 4 8 -1 18 -5 22 -8z m162 -23 c-3 -3 -9 2 -12 12 -6 14 -5 15 5 6 7 -7 10 -15 7 -18z m319 10 c0 -8 -4 -12 -9 -9 -5 3 -6 10 -3 15 9 13 12 11 12 -6z m-652 -5 c-3 -5 -12 -10 -18 -10 -7 0 -6 4 3 10 19 12 23 12 15 0z m271 -16 c1 -9 0 -13 -4 -10 -3 4 -7 14 -8 22 -1 9 0 13 4 10 3 -4 7 -14 8 -22z m95 3 c-10 -9 -11 -8 -5 6 3 10 9 15 12 12 3 -3 0 -11 -7 -18z m209 17 c0 -8 -19 -13 -24 -6 -3 5 1 9 9 9 8 0 15 -2 15 -3z m-480 -29 c0 -2 -9 -3 -19 -2 -11 0 -18 5 -15 9 4 6 34 0 34 -7z m-323 -10 c0 -8 -4 -12 -9 -9 -5 3 -6 10 -3 15 9 13 12 11 12 -6z m916 0 c-3 -9 -8 -14 -10 -11 -3 3 -2 9 2 15 9 16 15 13 8 -4z m-109 -3 c3 -5 -1 -9 -9 -9 -8 0 -12 4 -9 9 3 4 7 8 9 8 2 0 6 -4 9 -8z m36 -1 c0 -6 -4 -12 -8 -15 -5 -3 -9 1 -9 9 0 8 4 15 9 15 4 0 8 -4 8 -9z m35 -1 c3 -5 1 -10 -4 -10 -6 0 -11 5 -11 10 0 6 2 10 4 10 3 0 8 -4 11 -10z m-379 -36 c1 -9 0 -13 -4 -10 -3 4 -7 14 -8 22 -1 9 0 13 4 10 3 -4 7 -14 8 -22z m80 14 c3 -4 -1 -5 -10 -4 -8 1 -18 5 -22 8 -3 4 1 5 10 4 8 -1 18 -5 22 -8z m54 6 c0 -8 -19 -13 -24 -6 -3 5 1 9 9 9 8 0 15 -2 15 -3z m27 -16 c2 -17 0 -19 -7 -8 -5 8 -6 18 -4 22 8 12 10 10 11 -14z m36 -3 c-7 -21 -12 -19 -10 4 0 11 5 18 9 15 4 -3 5 -11 1 -19z m47 21 c0 -3 -4 -8 -10 -11 -5 -3 -10 -1 -10 4 0 6 5 11 10 11 6 0 10 -2 10 -4z m177 -21 c0 -8 -4 -12 -9 -9 -5 3 -6 10 -3 15 9 13 12 11 12 -6z m-33 -3 c3 -5 -1 -9 -9 -9 -8 0 -12 4 -9 9 3 4 7 8 9 8 2 0 6 -4 9 -8z m-264 -18 c0 -8 -19 -13 -24 -6 -3 5 1 9 9 9 8 0 15 -2 15 -3z m160 2 c0 -3 -4 -8 -10 -11 -5 -3 -10 -1 -10 4 0 6 5 11 10 11 6 0 10 -2 10 -4z m97 -21 c0 -8 -4 -12 -9 -9 -5 3 -6 10 -3 15 9 13 12 11 12 -6z m-500 -14 c0 -11 -5 -18 -9 -15 -4 3 -5 11 -1 19 7 21 12 19 10 -4z m159 -7 c1 -9 0 -13 -4 -10 -3 4 -7 14 -8 22 -1 9 0 13 4 10 3 -4 7 -14 8 -22z m244 -4 c0 -5 -2 -10 -4 -10 -3 0 -8 5 -11 10 -3 6 -1 10 4 10 6 0 11 -4 11 -10z m-56 -22 c-3 -4 -9 -8 -15 -8 -5 0 -9 4 -9 8 0 5 7 9 15 9 8 0 12 -4 9 -9z m-68 -23 c-1 -8 -5 -17 -8 -21 -5 -4 -4 16 1 34 3 9 9 -1 7 -13z m-226 -31 c0 -8 -19 -13 -24 -6 -3 5 1 9 9 9 8 0 15 -2 15 -3z m110 0 c0 -8 -19 -13 -24 -6 -3 5 1 9 9 9 8 0 15 -2 15 -3z m44 -2 c3 -5 -1 -9 -9 -9 -8 0 -12 4 -9 9 3 4 7 8 9 8 2 0 6 -4 9 -8z m196 4 c0 -3 -4 -8 -10 -11 -5 -3 -10 -1 -10 4 0 6 5 11 10 11 6 0 10 -2 10 -4z m-84 -42 c1 -9 0 -13 -4 -10 -3 4 -7 14 -8 22 -1 9 0 13 4 10 3 -4 7 -14 8 -22z m-60 -6 c3 -4 -1 -5 -10 -4 -8 1 -18 5 -22 8 -3 4 1 5 10 4 8 -1 18 -5 22 -8z m-561 -7 c3 -5 2 -12 -3 -15 -5 -3 -9 1 -9 9 0 17 3 19 12 6z m619 -30 c3 -5 -2 -15 -12 -22 -15 -12 -16 -12 -5 2 7 9 10 19 6 22 -3 4 -4 7 0 7 3 0 8 -4 11 -9z m-174 -42 c0 -4 -9 -7 -19 -6 -11 0 -18 4 -16 7 6 9 35 8 35 -1z m136 -1 c3 -4 -1 -5 -10 -4 -8 1 -18 5 -22 8 -3 4 1 5 10 4 8 -1 18 -5 22 -8z m-80 -23 c-1 -8 -5 -17 -8 -21 -5 -4 -4 16 1 34 3 9 9 -1 7 -13z m-59 -28 c0 -8 -6 -14 -14 -14 -9 0 -10 4 -2 14 6 7 12 13 14 13 1 0 2 -6 2 -13z m-477 -3 c0 -8 -19 -13 -24 -6 -3 5 1 9 9 9 8 0 15 -2 15 -3z m277 -29 c0 -8 -4 -12 -9 -9 -5 3 -6 10 -3 15 9 13 12 11 12 -6z m-77 -15 c0 -5 -5 -10 -11 -10 -5 0 -7 5 -4 10 3 6 8 10 11 10 2 0 4 -4 4 -10z m195 1 c3 -5 2 -12 -3 -15 -5 -3 -9 1 -9 9 0 17 3 19 12 6z m-200 -120 c3 -5 2 -12 -3 -15 -5 -3 -9 1 -9 9 0 17 3 19 12 6z m-515 -25 c0 -2 -8 -10 -17 -17 -16 -13 -17 -12 -4 4 13 16 21 21 21 13z m84 -94 c2 -4 -4 -8 -14 -8 -10 0 -16 4 -14 8 3 4 9 8 14 8 5 0 11 -4 14 -8z m-124 -202 c0 -5 -2 -10 -4 -10 -3 0 -8 5 -11 10 -3 6 -1 10 4 10 6 0 11 -4 11 -10z m121 -37 c13 -16 12 -17 -3 -4 -10 7 -18 15 -18 17 0 8 8 3 21 -13z m-76 -3 c3 -6 -1 -7 -9 -4 -18 7 -21 14 -7 14 6 0 13 -4 16 -10z m-250 -39 c3 -5 2 -12 -3 -15 -5 -3 -9 1 -9 9 0 17 3 19 12 6z m-35 -3915 c0 -3 -4 -8 -10 -11 -5 -3 -10 -1 -10 4 0 6 5 11 10 11 6 0 10 -2 10 -4z m-259 -83 c13 -16 12 -17 -3 -4 -10 7 -18 15 -18 17 0 8 8 3 21 -13z m-166 -11 c-3 -3 -11 0 -18 7 -9 10 -8 11 6 5 10 -3 15 -9 12 -12z m745 14 c0 -3 -4 -8 -10 -11 -5 -3 -10 -1 -10 4 0 6 5 11 10 11 6 0 10 -2 10 -4z m-5085 -35 c3 -5 2 -12 -3 -15 -5 -3 -9 1 -9 9 0 17 3 19 12 6z m4600 0 c3 -5 2 -12 -3 -15 -5 -3 -9 1 -9 9 0 17 3 19 12 6z m-491 -129 c3 -5 -1 -9 -9 -9 -8 0 -12 4 -9 9 3 4 7 8 9 8 2 0 6 -4 9 -8z m186 -158 c0 -8 -19 -13 -24 -6 -3 5 1 9 9 9 8 0 15 -2 15 -3z" transform="translate(0.000000,728.000000) scale(0.100000,-0.100000)"/></g></svg>